<?xml version="1.0" encoding="UTF-8"?>
<svg id="a" data-name="Livello 1" xmlns="http://www.w3.org/2000/svg" viewBox="0 0 512 512">
  <rect width="512" height="512" style="fill: #8f00ff;"/>
  <path d="M62.94,145.3c32.92-11.7,67.19-19.75,101.91-24.25,63.1-8.17,134.52-6.82,196.98,5.34,22.97,4.47,45.53,10.87,67.38,19.13l.68,1.94c.73,68.85-.17,140.54-27.26,204.82-28.97,68.76-91.73,111.24-155.96,143.96-43.35-21.88-86.42-48.75-119.29-84.95C63.64,341.1,61.88,235.11,62.94,145.3ZM230.48,138.85c-48.8,1.92-97.59,8.72-144.06,23.72l-.68,1.94c-.96,59.37.63,121.07,23.31,176.65,25.1,61.5,80.97,99.22,137.61,129.1,49.35-26.35,99.07-58.29,126.51-108.76,23.09-42.47,32.28-97.82,33.76-145.81.53-17.02-.45-34.13-.02-51.15l-1.1-1.52c-45.46-15.25-92.96-22-140.83-23.67-1.55-.05-2.98-.67-4.53-.71l-29.98.22Z" style="fill: #fff;"/>
  <path d="M353.83,22l-24.66,81.31c-7.37-.85-14.81-2.05-22.2-2.67-47.49-4.02-95.49-2.36-142.77,2.54l-24.68-80.85,66.48,37.01L246.99,7.58l39.75,51.69,67.09-37.27Z" style="fill: #fff;"/>
  <path d="M225.38,265.15c-.26,1.68.15,1.02.92,1.37,13.83,6.24,23.19,14.21,24.56,30.5,2.6,30.91-1.79,65.03.12,96.29-1.51,16.15-.3,32.55-.69,48.79-25.71-12.13-50.02-27.73-72.39-45.25-16.42-12.85-34.24-28.75-48.21-44.19-2.39-2.65-11.98-13.82-12.4-16.44-1.38-8.6.16-23.32,0-32.76-.66-37.49-.95-75.15-.65-112.73l-9.2-17.99,103.21-.65c38.32,3.11,40.28,31.41,37.68,63.23-1.07,13.06-10.64,25.65-22.93,29.84ZM157.22,255.31h29.16c1.66,0,17.3-8.94,19-10.49,5.6-5.09,5.58-22.62,2.82-29.02-1.15-2.65-5.97-7.02-8.71-7.02h-42.27v46.53ZM157.22,288.74v42.27c13.45,13.7,27.95,26.38,43.25,38,6.19-1.69,9.88-8.28,10.48-14.41,1.68-16.91-1.19-36.49-.05-53.68-.62-4.55-4.37-8.71-8.46-10.55-.61-.28-4.66-1.64-4.92-1.64h-40.31Z" style="fill: #fff;"/>
  <path d="M385.29,172.08v36.7h-73.4v46.86c0,.3-1.74,1.94.32,1.64s6.96-2.62,8.53-2.62h46.86l-11.14,35.39h-44.57v84.22c0,3.34,6.16,14.27,5.61,15.38-13.54,14.13-29.66,25.45-45.58,36.72v-237.57c0-.64-5.77-9.34-6.67-11.03-.93-1.76-2.13-3.74-2.51-5.68h122.55Z" style="fill: #fff;"/>
</svg>